<?xml version="1.0" encoding="utf-8"?>
<!-- Generator: Adobe Illustrator 22.1.0, SVG Export Plug-In . SVG Version: 6.00 Build 0)  -->
<svg version="1.1" id="图层_1" xmlns="http://www.w3.org/2000/svg" xmlns:xlink="http://www.w3.org/1999/xlink" x="0px" y="0px"
	 viewBox="0 0 100 125" style="enable-background:new 0 0 100 125;" xml:space="preserve">
<style type="text/css">
	.st0{fill:#21384C;}
</style>
<path class="st0" d="M95,45.5c-0.1-0.5-0.5-0.9-1-1l-0.6-0.1V36l1-0.8c0.4-0.3,0.6-0.9,0.4-1.4s-0.5-0.9-1-1l-5.5-1l0-7.1l0-0.1
	l1-0.9c0.4-0.3,0.6-0.9,0.4-1.4c-0.1-0.5-0.5-0.9-1-1l-44.8-8.1c-0.3-0.1-0.7,0-1,0.2L8,37.7c-0.7,0.4-3.1,2-3,6.6
	c0.1,5,3,7.2,3.1,7.3c0,0,0,0,0.1,0c0,0,0.1,0,0.1,0.1c0,0,0.1,0,0.1,0.1c0,0,0.1,0,0.1,0c0,0,0.1,0,0.1,0c0,0,0,0,0.1,0l2.1,0.4
	c-0.3,0.9-0.6,2-0.5,3.5c0,2.5,0.8,4.3,1.5,5.5l-1.6,1.1c-0.7,0.4-3.1,2-3,6.6c0.1,5,3,7.2,3.1,7.3c0.1,0.1,0.3,0.2,0.5,0.2l47,9.9
	c0,0,0,0,0,0l1.7,0.4c0.1,0,0.2,0,0.3,0c0.3,0,0.6-0.1,0.9-0.3L91.4,60c0.4-0.3,0.5-0.8,0.4-1.3c-0.1-0.5-0.5-0.9-1-1l-0.6-0.1v-7.1
	l4.2-3.6C94.9,46.5,95.1,46,95,45.5z M57.4,50.4c0.3,0,0.6-0.1,0.9-0.3l27.2-23.3v8.4L57.2,59.3v-9C57.3,50.4,57.3,50.4,57.4,50.4z
	 M10.1,40.5l44.5,9.3v9l-44.5-9.3C10.1,49.5,10.1,40.5,10.1,40.5z M12.1,74.1v-9l44.4,9.3v9L12.1,74.1z M15.2,60.9v-7.7l40.4,8.5
	c0,0,0,0,0,0l1.7,0.4c0.1,0,0.2,0,0.3,0c0.3,0,0.6-0.1,0.9-0.3l0.7-0.6l0.4,0.1v9L15.2,60.9z M87.7,59.8L59.2,84l0-9
	c0.1,0,0.2,0,0.2,0c0.3,0,0.6-0.1,0.9-0.3l1.5-1.3l0.7,0.1c0.1,0,0.2,0,0.3,0c0.3,0,0.6-0.1,0.9-0.3l24-20.5V59.8z M90.7,46.6
	L62.3,70.8l0-9c0.1,0,0.2,0,0.2,0c0.3,0,0.6-0.1,0.9-0.3l27.3-23.3L90.7,46.6z"/>
</svg>
