<?xml version="1.0" encoding="utf-8"?>
<!-- Generator: Adobe Illustrator 22.1.0, SVG Export Plug-In . SVG Version: 6.00 Build 0)  -->
<svg version="1.1" id="图层_1" xmlns="http://www.w3.org/2000/svg" xmlns:xlink="http://www.w3.org/1999/xlink" x="0px" y="0px"
	 viewBox="0 0 100 125" style="enable-background:new 0 0 100 125;" xml:space="preserve">
<style type="text/css">
	.st0{fill:#21384C;}
</style>
<path class="st0" d="M24.9,51.8c1.3,1.3,3.1,2.1,5,2.1c1.9,0,3.7-0.7,5-2.1l0,0c2.8-2.8,2.8-7.2,0-10L31,38h57c3.9,0,7-3.1,7-7
	s-3.1-7-7-7H31l3.9-3.9c2.8-2.8,2.8-7.2,0-10s-7.2-2.8-10,0L5.6,29.4C5.2,29.9,5,30.4,5,31c0,0.6,0.2,1.1,0.6,1.6L24.9,51.8z
	 M27.7,13c1.2-1.2,3.1-1.2,4.3,0s1.2,3.1,0,4.3l-7.3,7.3c-0.6,0.6-0.7,1.4-0.4,2.2c0.3,0.7,1,1.2,1.8,1.2H88c1.7,0,3,1.4,3,3
	c0,1.7-1.3,3-3,3H26.1c-0.8,0-1.5,0.5-1.9,1.2c-0.3,0.8-0.1,1.6,0.4,2.2l7.3,7.3c1.2,1.2,1.2,3.1,0,4.3c-1.2,1.2-3.1,1.2-4.3,0
	l-18-18L27.7,13z M75.1,48.2c-1.3-1.3-3.1-2.1-5-2.1c-1.9,0-3.7,0.7-5,2.1c-1.3,1.3-2.1,3.1-2.1,5c0,1.9,0.7,3.7,2.1,5L69,62H12
	c-3.9,0-7,3.1-7,7s3.1,7,7,7h57l-3.9,3.9c-1.3,1.3-2.1,3.1-2.1,5c0,1.9,0.7,3.7,2.1,5c1.3,1.3,3.1,2.1,5,2.1c1.9,0,3.7-0.7,5-2.1
	l19.3-19.3c0.4-0.4,0.6-1,0.6-1.6c0-0.6-0.2-1.1-0.6-1.6L75.1,48.2z M72.3,87c-1.2,1.2-3.2,1.2-4.3,0c-0.6-0.6-0.9-1.3-0.9-2.2
	c0-0.8,0.3-1.6,0.9-2.2l7.3-7.3c0.6-0.6,0.7-1.4,0.4-2.2c-0.3-0.7-1-1.2-1.9-1.2H12c-1.6,0-3-1.3-3-3s1.4-3,3-3h61.9
	c0.8,0,1.5-0.5,1.8-1.2c0.3-0.8,0.1-1.6-0.4-2.2L68,55.3c-0.6-0.6-0.9-1.3-0.9-2.2c0-0.8,0.3-1.6,0.9-2.2c1.2-1.2,3.2-1.2,4.3,0
	l18,18L72.3,87z"/>
</svg>
