<?xml version="1.0" encoding="utf-8"?>
<!-- Generator: Adobe Illustrator 22.1.0, SVG Export Plug-In . SVG Version: 6.00 Build 0)  -->
<svg version="1.1" id="图层_1" xmlns="http://www.w3.org/2000/svg" xmlns:xlink="http://www.w3.org/1999/xlink" x="0px" y="0px"
	 viewBox="0 0 128 160" style="enable-background:new 0 0 128 160;" xml:space="preserve">
<style type="text/css">
	.st0{fill:#21384C;}
</style>
<title>Application 1</title>
<circle class="st0" cx="65" cy="38" r="18"/>
<path class="st0" d="M124,108H4c-2.2,0-4-1.8-4-4s1.8-4,4-4h120c2.2,0,4,1.8,4,4S126.2,108,124,108z"/>
<path class="st0" d="M95,84c0-13.2-10.8-24-24-24H60c-13.2,0-24,10.8-24,24v12h59V84z"/>
<circle class="st0" cx="100.9" cy="44.1" r="16.1"/>
<path class="st0" d="M106.3,63.8h-9.9c-1,0-1.8,0.9-1.8,1.9c0,0.4,0.1,0.7,0.3,1c2.5,3.8,5,8.4,5,13.3v16h23.8c2.2,0,4-1.8,4-4v-6.7
	C127.8,73.4,118.2,63.8,106.3,63.8z"/>
<circle class="st0" cx="26" cy="44.1" r="16.1"/>
<path class="st0" d="M31,80c0-4.8,2.4-9.2,4.8-12.9c0.6-0.9,0.3-2.2-0.6-2.8C35,64.1,34.7,64,34.4,64c-1-0.1-2-0.2-3.1-0.2h-9.9
	C9.6,63.8,0,73.4,0,85.3V92c0,2.2,1.8,4,4,4h27V80z"/>
</svg>
