<svg id="Capa_1" data-name="Capa 1" xmlns="http://www.w3.org/2000/svg" width="52.7mm" height="34mm" viewBox="0 0 149.4 96.5"><defs><style>.cls-1{fill:none;stroke:#21384c;stroke-miterlimit:10;stroke-width:5px;}.cls-2{fill:#21384c;}</style></defs><path class="cls-1" d="M19.6,47.1,3.8,2.5H18.9L28.6,32h.2l10-29.5H52.3L36.5,47.1,53.1,93.9H38L27.5,62h-.2L16.6,93.9H3Z"/><path class="cls-2" d="M67,14.4a1.8,1.8,0,0,1,1.8-1.7h64.4a1.8,1.8,0,0,1,1.7,1.7,1.8,1.8,0,0,1-1.7,1.8H68.8A1.8,1.8,0,0,1,67,14.4Zm1.8,10.9h64.4a1.8,1.8,0,0,0,1.7-1.7,1.8,1.8,0,0,0-1.7-1.8H68.8A1.8,1.8,0,0,0,67,23.6,1.8,1.8,0,0,0,68.8,25.3Zm66.1,7.4a1.8,1.8,0,0,0-1.7-1.8H68.8A1.8,1.8,0,0,0,67,32.7a1.8,1.8,0,0,0,1.8,1.7h64.4A1.8,1.8,0,0,0,134.9,32.7ZM58.6,40.1V6.9H54.3a3.4,3.4,0,0,1-3.4-3.4A3.4,3.4,0,0,1,54.3,0h71.6a23.5,23.5,0,0,1,0,47H54.3a3.4,3.4,0,0,1-3.4-3.4,3.5,3.5,0,0,1,3.4-3.5Zm3.5,0h63.8a16.6,16.6,0,0,0,0-33.2H62.1Zm71.1,22.1H68.8A1.7,1.7,0,0,0,67,63.9a1.8,1.8,0,0,0,1.8,1.7h64.4a1.8,1.8,0,0,0,1.7-1.7A1.7,1.7,0,0,0,133.2,62.2Zm0,9.1H68.8A1.7,1.7,0,0,0,67,73a1.8,1.8,0,0,0,1.8,1.7h64.4a1.8,1.8,0,0,0,1.7-1.7A1.7,1.7,0,0,0,133.2,71.3Zm0,9.1H68.8a1.7,1.7,0,1,0,0,3.4h64.4a1.7,1.7,0,0,0,0-3.4Zm16.2-7.5a23.6,23.6,0,0,1-23.5,23.6H54.3A3.5,3.5,0,0,1,50.9,93a3.4,3.4,0,0,1,3.4-3.4h4.3V56.3H54.3a3.4,3.4,0,0,1-3.4-3.4,3.5,3.5,0,0,1,3.4-3.5h71.6A23.5,23.5,0,0,1,149.4,72.9Zm-6.9,0a16.7,16.7,0,0,0-16.6-16.6H62.1V89.6h63.8A16.7,16.7,0,0,0,142.5,72.9Z"/></svg>