<svg id="Capa_1" data-name="Capa 1" xmlns="http://www.w3.org/2000/svg" width="51.6mm" height="34mm" viewBox="0 0 146.4 96.5"><defs><style>.cls-1{fill:#ffcece;}</style></defs><path class="cls-1" d="M17.5,47.1.8,0h16L27,31.1h.3L37.8,0H52.1L35.4,47.1,52.9,96.5h-16l-11-33.7h-.3L14.3,96.5H0Z"/><path class="cls-1" d="M64,14.4a1.8,1.8,0,0,1,1.7-1.7h64.5a1.8,1.8,0,0,1,1.7,1.7,1.8,1.8,0,0,1-1.7,1.8H65.7A1.8,1.8,0,0,1,64,14.4Zm1.7,10.9h64.5a1.8,1.8,0,0,0,1.7-1.7,1.8,1.8,0,0,0-1.7-1.8H65.7A1.8,1.8,0,0,0,64,23.6,1.8,1.8,0,0,0,65.7,25.3Zm66.2,7.4a1.8,1.8,0,0,0-1.7-1.8H65.7A1.8,1.8,0,0,0,64,32.7a1.8,1.8,0,0,0,1.7,1.7h64.5A1.8,1.8,0,0,0,131.9,32.7ZM55.6,40.1V6.9H51.3a3.5,3.5,0,0,1-3.5-3.4A3.5,3.5,0,0,1,51.3,0h71.6a23.5,23.5,0,0,1,0,47H51.3a3.5,3.5,0,0,1-3.5-3.4,3.5,3.5,0,0,1,3.5-3.5Zm3.4,0h63.9a16.6,16.6,0,0,0,0-33.2H59Zm71.2,22.1H65.7A1.7,1.7,0,0,0,64,63.9a1.8,1.8,0,0,0,1.7,1.7h64.5a1.8,1.8,0,0,0,1.7-1.7A1.7,1.7,0,0,0,130.2,62.2Zm0,9.1H65.7A1.7,1.7,0,0,0,64,73a1.8,1.8,0,0,0,1.7,1.7h64.5a1.8,1.8,0,0,0,1.7-1.7A1.7,1.7,0,0,0,130.2,71.3Zm0,9.1H65.7a1.7,1.7,0,0,0,0,3.4h64.5a1.7,1.7,0,0,0,0-3.4Zm16.2-7.5a23.6,23.6,0,0,1-23.5,23.6H51.3A3.5,3.5,0,0,1,47.8,93a3.5,3.5,0,0,1,3.5-3.4h4.3V56.3H51.3a3.5,3.5,0,0,1-3.5-3.4,3.5,3.5,0,0,1,3.5-3.5h71.6A23.6,23.6,0,0,1,146.4,72.9Zm-6.9,0a16.7,16.7,0,0,0-16.6-16.6H59V89.6h63.9A16.7,16.7,0,0,0,139.5,72.9Z"/></svg>