<svg id="Capa_1" data-name="Capa 1" xmlns="http://www.w3.org/2000/svg" width="52.9mm" height="34mm" viewBox="0 0 150 96.5"><defs><style>.cls-1{fill:none;stroke:#ffcece;stroke-miterlimit:10;stroke-width:5px;}.cls-2{fill:#ffcece;}</style></defs><path class="cls-1" d="M20.2,47.1,4.4,2.5H19.5L29.2,32h.2L39.3,2.5H52.9L37.1,47.1,53.7,93.9H38.6L28.1,62h-.2L17.2,93.9H3.6Z"/><path class="cls-2" d="M67.6,14.4a1.8,1.8,0,0,1,1.7-1.7h64.5a1.8,1.8,0,0,1,1.7,1.7,1.8,1.8,0,0,1-1.7,1.8H69.3A1.8,1.8,0,0,1,67.6,14.4Zm1.7,10.9h64.5a1.8,1.8,0,0,0,1.7-1.7,1.8,1.8,0,0,0-1.7-1.8H69.3a1.8,1.8,0,0,0-1.7,1.8A1.8,1.8,0,0,0,69.3,25.3Zm66.2,7.4a1.8,1.8,0,0,0-1.7-1.8H69.3a1.8,1.8,0,0,0-1.7,1.8,1.8,1.8,0,0,0,1.7,1.7h64.5A1.8,1.8,0,0,0,135.5,32.7ZM59.2,40.1V6.9H54.9a3.5,3.5,0,0,1-3.5-3.4A3.5,3.5,0,0,1,54.9,0h71.6a23.5,23.5,0,0,1,0,47H54.9a3.5,3.5,0,0,1-3.5-3.4,3.5,3.5,0,0,1,3.5-3.5Zm3.4,0h63.9a16.6,16.6,0,0,0,0-33.2H62.6Zm71.2,22.1H69.3a1.7,1.7,0,0,0-1.7,1.7,1.8,1.8,0,0,0,1.7,1.7h64.5a1.8,1.8,0,0,0,1.7-1.7A1.7,1.7,0,0,0,133.8,62.2Zm0,9.1H69.3A1.7,1.7,0,0,0,67.6,73a1.8,1.8,0,0,0,1.7,1.7h64.5a1.8,1.8,0,0,0,1.7-1.7A1.7,1.7,0,0,0,133.8,71.3Zm0,9.1H69.3a1.7,1.7,0,1,0,0,3.4h64.5a1.7,1.7,0,0,0,0-3.4ZM150,72.9a23.6,23.6,0,0,1-23.5,23.6H54.9A3.5,3.5,0,0,1,51.4,93a3.5,3.5,0,0,1,3.5-3.4h4.3V56.3H54.9a3.5,3.5,0,0,1-3.5-3.4,3.5,3.5,0,0,1,3.5-3.5h71.6A23.6,23.6,0,0,1,150,72.9Zm-6.9,0a16.7,16.7,0,0,0-16.6-16.6H62.6V89.6h63.9A16.7,16.7,0,0,0,143.1,72.9Z"/></svg>