<?xml version="1.0" encoding="utf-8"?>
<!-- Generator: Adobe Illustrator 22.1.0, SVG Export Plug-In . SVG Version: 6.00 Build 0)  -->
<svg version="1.1" id="Capa_1" xmlns="http://www.w3.org/2000/svg" xmlns:xlink="http://www.w3.org/1999/xlink" x="0px" y="0px"
	 viewBox="0 0 149.4 96.4" style="enable-background:new 0 0 149.4 96.4;" xml:space="preserve">
<style type="text/css">
	.st0{fill:none;stroke:#F5F1D1;stroke-width:5;stroke-miterlimit:10;}
	.st1{fill:#F5F1D1;}
</style>
<path class="st0" d="M19.7,47L3.9,2.5H19L28.7,32h0.2l10-29.5h13.5L36.5,47l16.6,46.7H38L27.6,61.9h-0.2L16.7,93.8H3.1L19.7,47z"/>
<path class="st1" d="M67,14.4c0.1-1,0.8-1.7,1.8-1.7h64.3c0.9,0,1.6,0.8,1.7,1.7c0,1-0.7,1.7-1.7,1.8H68.8
	C67.8,16.2,67,15.4,67,14.4C67,14.4,67,14.4,67,14.4z M68.8,25.3h64.3c0.9,0,1.6-0.8,1.7-1.7c0-1-0.7-1.7-1.7-1.8H68.8
	c-1,0-1.8,0.8-1.8,1.8c0,0,0,0,0,0C67.1,24.5,67.8,25.3,68.8,25.3z M134.8,32.7c0-1-0.7-1.7-1.7-1.8H68.8c-1,0-1.8,0.8-1.8,1.8
	c0,0,0,0,0,0c0.1,1,0.8,1.7,1.8,1.7h64.3C134,34.3,134.8,33.6,134.8,32.7z M58.6,40V6.9h-4.3c-1.9,0-3.4-1.5-3.4-3.4c0,0,0,0,0,0
	c-0.1-1.9,1.4-3.4,3.3-3.5c0,0,0.1,0,0.1,0h71.5c13,0,23.5,10.5,23.5,23.5s-10.5,23.5-23.5,23.5H54.3c-1.9,0-3.4-1.5-3.4-3.4v0
	c0-1.9,1.5-3.4,3.4-3.5H58.6z M62.1,40h63.7c9.2,0,16.6-7.4,16.6-16.6S135,6.9,125.8,6.9H62.1V40z M133.1,62.1H68.8
	c-0.9-0.1-1.7,0.7-1.8,1.6c0,0,0,0.1,0,0.1c0.1,1,0.8,1.7,1.8,1.7h64.3c0.9,0,1.6-0.8,1.7-1.7C134.8,62.9,134.1,62.1,133.1,62.1
	C133.1,62.1,133.1,62.1,133.1,62.1z M133.1,71.2H68.8c-0.9-0.1-1.7,0.7-1.8,1.6c0,0,0,0.1,0,0.1c0.1,1,0.8,1.7,1.8,1.7h64.3
	c0.9,0,1.6-0.8,1.7-1.7C134.8,72,134.1,71.2,133.1,71.2C133.1,71.2,133.1,71.2,133.1,71.2z M133.1,80.3H68.8c-0.9,0-1.7,0.8-1.7,1.7
	c0,0.9,0.8,1.7,1.7,1.7h64.3c0.9,0,1.7-0.8,1.7-1.7C134.8,81.1,134.1,80.3,133.1,80.3L133.1,80.3z M149.3,72.8
	c0,13-10.5,23.5-23.5,23.6H54.3c-1.9-0.1-3.4-1.6-3.4-3.5c0-1.9,1.5-3.4,3.4-3.4h0h4.3V56.2h-4.3c-1.9,0-3.4-1.5-3.4-3.4v0
	c0-1.9,1.5-3.4,3.4-3.5h71.5C138.8,49.3,149.3,59.8,149.3,72.8C149.3,72.8,149.3,72.8,149.3,72.8z M142.4,72.8
	c-0.1-9.1-7.4-16.5-16.6-16.6H62.1v33.3h63.7C135,89.4,142.4,82,142.4,72.8z"/>
</svg>
