<?xml version="1.0" encoding="utf-8"?>
<!-- Generator: Adobe Illustrator 22.1.0, SVG Export Plug-In . SVG Version: 6.00 Build 0)  -->
<svg version="1.1" id="Capa_1" xmlns="http://www.w3.org/2000/svg" xmlns:xlink="http://www.w3.org/1999/xlink" x="0px" y="0px"
	 viewBox="0 0 146.3 96.4" style="enable-background:new 0 0 146.3 96.4;" xml:space="preserve">
<style type="text/css">
	.st0{fill:#F5F1D1;}
</style>
<path class="st0" d="M17.5,47L0.8,0h16L27,31.1h0.3L37.8,0h14.3L35.4,47l17.5,49.3h-16l-11-33.7h-0.3L14.3,96.4H0L17.5,47z"/>
<path class="st0" d="M63.9,14.4c0-0.9,0.8-1.6,1.7-1.7h64.4c0.9,0,1.6,0.8,1.7,1.7c0,1-0.7,1.7-1.7,1.8H65.6
	C64.7,16.1,63.9,15.3,63.9,14.4z M65.6,25.3h64.4c0.9,0,1.6-0.8,1.7-1.7c0-1-0.7-1.7-1.7-1.8H65.6c-1,0.1-1.7,0.8-1.7,1.8
	C64,24.5,64.7,25.2,65.6,25.3z M131.8,32.7c0-1-0.7-1.7-1.7-1.8H65.6c-1,0.1-1.7,0.8-1.7,1.8c0,0.9,0.8,1.6,1.7,1.7h64.4
	C131,34.3,131.7,33.6,131.8,32.7z M55.6,40V6.9h-4.3c-1.9,0-3.4-1.5-3.5-3.4c0-1.9,1.6-3.5,3.5-3.5h71.5c13,0,23.5,10.5,23.5,23.5
	s-10.5,23.5-23.5,23.5H51.3c-1.9,0-3.4-1.5-3.5-3.4c0-1.9,1.6-3.5,3.5-3.5H55.6z M59,40h63.8c9.2,0,16.6-7.4,16.6-16.6
	s-7.4-16.6-16.6-16.6l0,0H59V40z M130.1,62.1H65.6c-0.9,0-1.7,0.8-1.7,1.7l0,0c0,0.9,0.8,1.6,1.7,1.7h64.4c0.9,0,1.6-0.8,1.7-1.7
	C131.8,62.9,131,62.1,130.1,62.1z M130.1,71.2H65.6c-0.9,0-1.7,0.8-1.7,1.7l0,0c0,0.9,0.8,1.6,1.7,1.7h64.4c0.9,0,1.6-0.8,1.7-1.7
	C131.8,72,131,71.2,130.1,71.2z M130.1,80.3H65.6c-0.9,0-1.7,0.8-1.7,1.7c0,0.9,0.8,1.7,1.7,1.7h64.4c0.9,0,1.7-0.8,1.7-1.7
	C131.8,81.1,131,80.3,130.1,80.3z M146.2,72.8c0,13-10.5,23.5-23.5,23.6H51.3c-1.9,0-3.5-1.6-3.5-3.5c0.1-1.9,1.6-3.4,3.5-3.4h4.3
	V56.2h-4.3c-1.9,0-3.4-1.5-3.5-3.4c0-1.9,1.6-3.5,3.5-3.5h71.5C135.7,49.4,146.2,59.9,146.2,72.8z M139.4,72.8
	c-0.1-9.1-7.4-16.5-16.6-16.6H59v33.3h63.8C131.9,89.4,139.4,82,139.4,72.8z"/>
</svg>
