<?xml version="1.0" encoding="utf-8"?>
<!-- Generator: Adobe Illustrator 22.1.0, SVG Export Plug-In . SVG Version: 6.00 Build 0)  -->
<svg version="1.1" id="Capa_1" xmlns="http://www.w3.org/2000/svg" xmlns:xlink="http://www.w3.org/1999/xlink" x="0px" y="0px"
	 viewBox="0 0 261.6 96.4" style="enable-background:new 0 0 261.6 96.4;" xml:space="preserve">
<style type="text/css">
	.st0{fill:#F5F1D1;}
	.st1{enable-background:new    ;}
</style>
<path class="st0" d="M17.6,47L0.9,0h16l10.2,31.1h0.3L37.9,0h14.3L35.5,47L53,96.4H37L26,62.7h-0.3L14.5,96.4H0.1L17.6,47z"/>
<g class="st1">
	<path class="st0" d="M150.7,78.8c0-3.3,0.5-6.1,1.5-8.4c0.7-1.7,1.8-3.2,3-4.5c1.3-1.3,2.7-2.3,4.2-2.9c2-0.9,4.4-1.3,7-1.3
		c4.8,0,8.7,1.5,11.5,4.5c2.9,3,4.3,7.1,4.3,12.4c0,5.3-1.4,9.4-4.3,12.4c-2.9,3-6.7,4.5-11.5,4.5c-4.9,0-8.7-1.5-11.6-4.4
		S150.7,84,150.7,78.8z M157.5,78.6c0,3.7,0.9,6.5,2.6,8.4c1.7,1.9,3.9,2.9,6.5,2.9s4.8-0.9,6.5-2.8s2.5-4.7,2.5-8.5
		c0-3.7-0.8-6.5-2.5-8.4c-1.6-1.8-3.8-2.8-6.5-2.8s-4.9,0.9-6.6,2.8C158.3,72,157.5,74.8,157.5,78.6z"/>
	<path class="st0" d="M186.6,78.8c0-3.3,0.5-6.1,1.5-8.4c0.7-1.7,1.8-3.2,3-4.5c1.3-1.3,2.7-2.3,4.2-2.9c2-0.9,4.4-1.3,7-1.3
		c4.8,0,8.7,1.5,11.5,4.5c2.9,3,4.3,7.1,4.3,12.4c0,5.3-1.4,9.4-4.3,12.4c-2.9,3-6.7,4.5-11.5,4.5c-4.9,0-8.7-1.5-11.6-4.4
		S186.6,84,186.6,78.8z M193.4,78.6c0,3.7,0.9,6.5,2.6,8.4c1.7,1.9,3.9,2.9,6.5,2.9s4.8-0.9,6.5-2.8s2.5-4.7,2.5-8.5
		c0-3.7-0.8-6.5-2.5-8.4c-1.6-1.8-3.8-2.8-6.5-2.8s-4.9,0.9-6.6,2.8C194.2,72,193.4,74.8,193.4,78.6z"/>
	<path class="st0" d="M223.9,95.5V62.9h6.6v14.5L243.8,63h8.9l-12.4,12.7l13,19.9h-8.5l-9-15.3l-5.3,5.5v9.9L223.9,95.5L223.9,95.5z
		"/>
</g>
<path class="st0" d="M64.1,14.4c0.1-1,0.8-1.7,1.8-1.7h64.3c0.9,0,1.6,0.8,1.7,1.7c0,1-0.7,1.7-1.7,1.8H65.9
	C64.9,16.2,64.1,15.4,64.1,14.4L64.1,14.4z M65.9,25.3h64.3c0.9,0,1.6-0.8,1.7-1.7c0-1-0.7-1.7-1.7-1.8H65.9c-1,0-1.8,0.8-1.8,1.8
	l0,0C64.1,24.5,64.9,25.3,65.9,25.3z M131.9,32.7c0-1-0.7-1.7-1.7-1.8H65.9c-1,0-1.8,0.8-1.8,1.8l0,0c0.1,1,0.8,1.7,1.8,1.7h64.3
	C131.1,34.3,131.8,33.6,131.9,32.7z M55.7,40V6.9h-4.3c-1.9,0-3.4-1.5-3.4-3.4l0,0c-0.1-1.9,1.4-3.4,3.3-3.5h0.1h71.5
	c13,0,23.5,10.5,23.5,23.5S135.9,47,122.9,47H51.4c-1.9,0-3.4-1.5-3.4-3.4l0,0c0-1.9,1.5-3.4,3.4-3.5L55.7,40L55.7,40z M59.2,40
	h63.7c9.2,0,16.6-7.4,16.6-16.6S132,6.9,122.9,6.9H59.2V40z M130.2,62.1H65.9c-0.9-0.1-1.7,0.7-1.8,1.6v0.1c0.1,1,0.8,1.7,1.8,1.7
	h64.3c0.9,0,1.6-0.8,1.7-1.7C131.9,62.9,131.1,62.1,130.2,62.1L130.2,62.1z M130.2,71.2H65.9c-0.9-0.1-1.7,0.7-1.8,1.6v0.1
	c0.1,1,0.8,1.7,1.8,1.7h64.3c0.9,0,1.6-0.8,1.7-1.7C131.9,72,131.1,71.2,130.2,71.2L130.2,71.2z M130.2,80.3H65.9
	c-0.9,0-1.7,0.8-1.7,1.7c0,0.9,0.8,1.7,1.7,1.7h64.3c0.9,0,1.7-0.8,1.7-1.7C131.9,81.1,131.1,80.3,130.2,80.3L130.2,80.3z
	 M146.3,72.8c0,13-10.5,23.5-23.5,23.6H51.4c-1.9-0.1-3.4-1.6-3.4-3.5s1.5-3.4,3.4-3.4l0,0h4.3V56.2h-4.3c-1.9,0-3.4-1.5-3.4-3.4
	l0,0c0-1.9,1.5-3.4,3.4-3.5h71.5C135.8,49.3,146.3,59.8,146.3,72.8L146.3,72.8z M139.5,72.8c0-9.2-7.4-16.6-16.6-16.6H59.2v33.3
	h63.7C132.1,89.5,139.5,82.1,139.5,72.8L139.5,72.8z"/>
</svg>
